<?xml version="1.0" encoding="utf-8"?>
<!-- Generator: Adobe Illustrator 19.0.0, SVG Export Plug-In . SVG Version: 6.00 Build 0)  -->
<svg version="1.1" id="Layer_1" xmlns="http://www.w3.org/2000/svg" xmlns:xlink="http://www.w3.org/1999/xlink" x="0px" y="0px"
	 viewBox="-567 392.2 56.7 56.7" style="enable-background:new -567 392.2 56.7 56.7;" xml:space="preserve">
<style type="text/css">
	.st0{fill:#5E5E5E;}
</style>
<path class="st0" d="M-560.9,428.4c0.1,0,0.2-0.1,0.2-0.2l0.6-4.3l-0.6-4.4c0-0.1-0.1-0.2-0.2-0.2s-0.2,0.1-0.2,0.2
	c0,0-0.5,4.4-0.5,4.4l0.5,4.3C-561.1,428.3-561,428.4-560.9,428.4z M-562.5,426.6C-562.5,426.6-562.5,426.6-562.5,426.6
	L-562.5,426.6L-562.5,426.6z M-562.7,426.8c0.1,0,0.2-0.1,0.2-0.2l0.4-2.7l-0.4-2.7c0-0.1-0.1-0.2-0.2-0.2c-0.1,0-0.2,0.1-0.2,0.2
	l-0.4,2.7l0.4,2.7C-562.9,426.7-562.8,426.8-562.7,426.8z M-558.7,418.6c0-0.1-0.1-0.2-0.2-0.2c-0.1,0-0.2,0.1-0.2,0.2
	c0,0-0.5,5.3-0.5,5.3l0.5,5.1c0,0.1,0.1,0.2,0.2,0.2c0.1,0,0.2-0.1,0.2-0.2l0.5-5.1L-558.7,418.6z M-557,429.4
	c0.2,0,0.3-0.1,0.3-0.3l0,0l0.5-5.2l-0.5-5.4c0-0.2-0.1-0.3-0.3-0.3c-0.2,0-0.3,0.1-0.3,0.3l-0.4,5.4l0.4,5.2
	C-557.3,429.3-557.2,429.4-557,429.4z M-555.1,429.5c0.2,0,0.3-0.1,0.3-0.3v0l0.5-5.3l-0.5-5c0-0.2-0.2-0.3-0.3-0.3
	c-0.2,0-0.3,0.1-0.3,0.3l-0.4,5l0.4,5.3C-555.4,429.3-555.2,429.5-555.1,429.5z M-552.3,423.9l-0.4-8.1c0-0.2-0.2-0.4-0.4-0.4
	c-0.2,0-0.4,0.2-0.4,0.4l-0.4,8.1l0.4,5.3c0,0.2,0.2,0.4,0.4,0.4c0.2,0,0.4-0.2,0.4-0.4v0L-552.3,423.9z M-551.1,429.5
	c0.2,0,0.4-0.2,0.4-0.4v0l0.4-5.2l-0.4-10c0-0.2-0.2-0.4-0.4-0.4c-0.2,0-0.4,0.2-0.4,0.4l-0.4,10l0.4,5.2
	C-551.5,429.3-551.3,429.5-551.1,429.5z M-549.1,412.6c-0.2,0-0.4,0.2-0.5,0.5l-0.3,10.8l0.3,5.2c0,0.3,0.2,0.5,0.5,0.5
	c0.2,0,0.4-0.2,0.5-0.5v0l0.4-5.2l-0.4-10.8C-548.6,412.8-548.8,412.6-549.1,412.6z M-547,429.5c0.3,0,0.5-0.2,0.5-0.5v0l0.3-5.1
	l-0.3-11.2c0-0.3-0.2-0.5-0.5-0.5c-0.3,0-0.5,0.2-0.5,0.5l-0.3,11.2l0.3,5.1C-547.5,429.3-547.3,429.5-547,429.5z M-545,429.5
	c0.3,0,0.5-0.2,0.5-0.5v0l0.3-5.1l-0.3-10.9c0-0.3-0.2-0.5-0.5-0.5c-0.3,0-0.5,0.2-0.5,0.5l-0.3,10.9l0.3,5.1
	C-545.5,429.3-545.3,429.5-545,429.5z M-542,423.9l-0.3-10.5c0-0.3-0.3-0.6-0.6-0.6c-0.3,0-0.6,0.3-0.6,0.6l-0.3,10.5l0.3,5.1
	c0,0.3,0.3,0.6,0.6,0.6c0.3,0,0.6-0.3,0.6-0.6v0L-542,423.9z M-540.8,429.5c0.3,0,0.6-0.3,0.6-0.6v0l0.3-5l-0.3-12.5
	c0-0.3-0.3-0.6-0.6-0.6c-0.3,0-0.6,0.3-0.6,0.6l-0.2,12.5c0,0,0.2,5,0.2,5C-541.5,429.3-541.2,429.5-540.8,429.5z M-538.8,409.6
	c-0.4,0-0.7,0.3-0.7,0.7l-0.3,13.7l0.3,5c0,0.4,0.3,0.7,0.7,0.7s0.7-0.3,0.7-0.7v0l0.3-5l-0.3-13.7
	C-538.1,409.9-538.4,409.6-538.8,409.6z M-536.9,429.5c0,0,16.7,0,16.8,0c3.3,0,6.1-2.7,6.1-6.1s-2.7-6.1-6.1-6.1
	c-0.8,0-1.6,0.2-2.3,0.5c-0.5-5.5-5.1-9.8-10.7-9.8c-1.4,0-2.7,0.3-3.9,0.7c-0.5,0.2-0.6,0.4-0.6,0.7v19.2
	C-537.5,429.2-537.2,429.5-536.9,429.5z"/>
</svg>
