<?xml version="1.0" encoding="utf-8"?>
<!-- Generator: Adobe Illustrator 19.0.0, SVG Export Plug-In . SVG Version: 6.00 Build 0)  -->
<svg version="1.1" id="Layer_1" xmlns="http://www.w3.org/2000/svg" xmlns:xlink="http://www.w3.org/1999/xlink" x="0px" y="0px"
	 viewBox="-567 392.2 56.7 56.7" style="enable-background:new -567 392.2 56.7 56.7;" xml:space="preserve">
<style type="text/css">
	.st0{fill:#EA4C89;}
</style>
<path class="st0" d="M-514.5,415.5c-0.3-1.6-0.8-3.2-1.4-4.6c-0.6-1.5-1.4-2.9-2.3-4.2c-0.9-1.3-1.9-2.5-3-3.7
	c-1.1-1.1-2.3-2.1-3.7-3c-1.3-0.9-2.7-1.7-4.2-2.3c-1.5-0.6-3.1-1.1-4.6-1.4c-1.6-0.3-3.3-0.5-5-0.5s-3.3,0.2-5,0.5
	c-1.6,0.3-3.2,0.8-4.6,1.4c-1.5,0.6-2.9,1.4-4.2,2.3s-2.5,1.9-3.7,3c-1.1,1.1-2.1,2.3-3,3.7c-0.9,1.3-1.7,2.7-2.3,4.2
	s-1.1,3.1-1.4,4.6c-0.3,1.6-0.5,3.3-0.5,5s0.2,3.4,0.5,5s0.8,3.2,1.4,4.6c0.6,1.5,1.4,2.9,2.3,4.2c0.9,1.3,1.9,2.5,3,3.7
	c1.1,1.1,2.3,2.1,3.7,3c1.3,0.9,2.7,1.7,4.2,2.3c1.5,0.6,3.1,1.1,4.6,1.4c1.6,0.3,3.3,0.5,5,0.5s3.3-0.2,5-0.5
	c1.6-0.3,3.2-0.8,4.6-1.4c1.5-0.6,2.9-1.4,4.2-2.3s2.5-1.9,3.7-3c1.1-1.1,2.1-2.3,3-3.7c0.9-1.3,1.7-2.7,2.3-4.2s1.1-3.1,1.4-4.6
	c0.3-1.6,0.5-3.3,0.5-5C-514,418.8-514.1,417.2-514.5,415.5z M-517.6,420.3c-0.3-0.1-7.4-1.6-14.7-0.7c-0.1-0.4-0.3-0.7-0.5-1.1
	c-0.4-1-0.9-2.1-1.4-3.1c8.3-3.4,11.7-8.3,11.8-8.4C-519.4,410.7-517.6,415.3-517.6,420.3z M-524.7,404.7c-0.1,0.1-3.1,4.7-11,7.6
	c-3.6-6.6-7.6-11.9-7.9-12.3c1.6-0.4,3.3-0.6,5-0.6C-533.3,399.4-528.5,401.4-524.7,404.7z M-543.7,400L-543.7,400
	C-543.7,400-543.8,400-543.7,400C-543.8,400-543.8,400-543.7,400z M-547.7,401.4c0.3,0.4,4.2,5.7,7.8,12.2
	c-10.1,2.7-18.9,2.6-19.5,2.6C-558,409.6-553.6,404.2-547.7,401.4z M-559.8,420.5c0-0.2,0-0.4,0-0.7c0.4,0,10.8,0.2,21.7-3
	c0.6,1.2,1.2,2.4,1.7,3.6c-0.3,0.1-0.6,0.2-0.8,0.3c-11.4,3.7-17.2,13.9-17.2,13.9l0,0C-557.8,430.9-559.8,425.9-559.8,420.5z
	 M-538.7,441.6c-5.1,0-9.8-1.8-13.4-4.8c0.3,0.2,0.5,0.4,0.5,0.4s4-8.8,16.6-13.2h0.1c3,7.7,4.2,14.2,4.5,16
	C-533,441-535.8,441.6-538.7,441.6z M-526.9,438c-0.2-1.3-1.3-7.5-4.1-15.1c6.8-1.1,12.7,0.8,13.2,0.9
	C-518.8,429.8-522.1,434.8-526.9,438z"/>
</svg>
