<?xml version="1.0" encoding="utf-8"?>
<!-- Generator: Adobe Illustrator 19.0.0, SVG Export Plug-In . SVG Version: 6.00 Build 0)  -->
<svg version="1.1" id="Layer_1" xmlns="http://www.w3.org/2000/svg" xmlns:xlink="http://www.w3.org/1999/xlink" x="0px" y="0px"
	 viewBox="-567 392.2 56.7 56.7" style="enable-background:new -567 392.2 56.7 56.7;" xml:space="preserve">
<style type="text/css">
	.st0{fill:#62448C;}
</style>
<g>
	<g>
		<path class="st0" d="M-562.4,415c-1.1,0.4-1.9,1.4-2.1,2.6c-0.2,1.2,0.3,2.4,1.3,3.1l10.6,7.7l37.5-29.5l-33.2,32.7l14.4,10.5
			c0.9,0.7,2.1,0.9,3.2,0.5c1.1-0.3,2-1.2,2.3-2.2l15.4-42.3c0.2-0.4,0-0.9-0.3-1.2c-0.3-0.3-0.8-0.4-1.2-0.3L-562.4,415z"/>
		<path class="st0" d="M-555.1,430.9l0.1,0.5l2,11.2c0.2,0.8,0.7,1.5,1.5,1.9c0.8,0.3,1.7,0.3,2.4-0.2c2.9-1.8,6.6-4.3,6.5-4.4
			L-555.1,430.9z"/>
	</g>
</g>
</svg>
