<?xml version="1.0" encoding="utf-8"?>
<!-- Generator: Adobe Illustrator 19.0.0, SVG Export Plug-In . SVG Version: 6.00 Build 0)  -->
<svg version="1.1" id="Layer_1" xmlns="http://www.w3.org/2000/svg" xmlns:xlink="http://www.w3.org/1999/xlink" x="0px" y="0px"
	 viewBox="-567 392.2 56.7 56.7" style="enable-background:new -567 392.2 56.7 56.7;" xml:space="preserve">
<style type="text/css">
	.st0{fill:#5E5E5E;}
</style>
<g>
	<path class="st0" d="M-536.9,419.3L-536.9,419.3C-536.9,419.2-537,419.3-536.9,419.3L-536.9,419.3z"/>
	<path class="st0" d="M-517.7,396.9h-42.1c-2,0-3.7,1.6-3.7,3.6V443c0,2,1.6,3.6,3.7,3.6h42.1c2,0,3.7-1.6,3.7-3.6v-42.6
		C-514.1,398.5-515.7,396.9-517.7,396.9z M-548.5,438.5h-7.5V416h7.5V438.5z M-552.3,413L-552.3,413c-2.6,0-4.2-1.7-4.2-3.9
		c0-2.2,1.7-3.9,4.2-3.9c2.6,0,4.1,1.7,4.2,3.9C-548,411.2-549.7,413-552.3,413z M-521.6,438.5h-7.5v-12c0-3-1.1-5.1-3.8-5.1
		c-2.1,0-3.3,1.4-3.8,2.7c-0.2,0.5-0.2,1.1-0.2,1.8v12.5h-7.5c0,0,0.1-20.4,0-22.5h7.5v3.2c1-1.5,2.8-3.7,6.7-3.7
		c4.9,0,8.6,3.2,8.6,10.1L-521.6,438.5L-521.6,438.5z"/>
</g>
</svg>
