<?xml version="1.0" encoding="utf-8"?>
<!-- Generator: Adobe Illustrator 19.0.0, SVG Export Plug-In . SVG Version: 6.00 Build 0)  -->
<svg version="1.1" id="Layer_1" xmlns="http://www.w3.org/2000/svg" xmlns:xlink="http://www.w3.org/1999/xlink" x="0px" y="0px"
	 viewBox="-567 392.2 56.7 56.7" style="enable-background:new -567 392.2 56.7 56.7;" xml:space="preserve">
<style type="text/css">
	.st0{fill:#5E5E5E;}
</style>
<g>
	<path class="st0" d="M-543.4,418.9c0,0,4.7-0.3,4.7-5.9c0-5.5-3.8-8.2-8.7-8.2h-9h-0.3h-6.8v30.8h6.8h0.3h9c0,0,9.8,0.3,9.8-9.1
		C-537.7,426.5-537.2,418.9-543.4,418.9z M-556.4,410.3h7.8h1.2c0,0,2.2,0,2.2,3.2s-1.3,3.7-2.7,3.7h-8.4L-556.4,410.3L-556.4,410.3
		z M-547.9,430.1c-0.2,0-0.4,0-0.6,0h-7.9v-8.2h9c0,0,3.2,0,3.2,4.2C-544.2,429.7-546.6,430.1-547.9,430.1z"/>
	<path class="st0" d="M-524.6,412.6c-11.9,0-11.8,11.8-11.8,11.8s-0.8,11.8,11.8,11.8c0,0,10.5,0.6,10.5-8.2h-5.4
		c0,0,0.2,3.3-4.9,3.3c0,0-5.4,0.4-5.4-5.4h16C-513.9,426-512.1,412.6-524.6,412.6z M-529.9,421.9c0,0,0.7-4.8,5.4-4.8
		c4.8,0,4.7,4.8,4.7,4.8H-529.9z"/>
	<rect x="-531.2" y="406.6" class="st0" width="12.7" height="3.8"/>
</g>
</svg>
